<svg width="37" height="41" viewBox="0 0 37 41" fill="none" xmlns="http://www.w3.org/2000/svg">
<path d="M35.0211 40.7211C32.5786 40.7211 32.7346 37.9134 30.6383 37.9134C28.542 37.9134 29.3828 40.7211 26.8757 40.7211C24.3685 40.7211 24.456 37.9134 22.6298 37.9134C20.8037 37.9134 20.8113 40.7211 18.4829 40.7211C16.1546 40.7211 16.3106 37.571 14.4844 37.571C12.6582 37.571 12.0647 40.7211 10.1054 40.7211C8.14611 40.7211 7.41184 37.571 5.79493 37.571C4.17801 37.571 4.23508 40.7211 1.94857 40.7211C0.202303 40.7211 -1.55918 17.0343 7.09606 5.80718L6.22484 1.04774L11.0489 2.12442C13.1262 0.804256 15.5839 0.0395508 18.4867 0.0395508C21.207 0.0395508 23.5429 0.712948 25.5403 1.88854L30.4291 0.827083L29.6682 5.52184C38.6164 16.6234 36.9043 40.7249 35.0249 40.7249L35.0211 40.7211Z" fill="#F26522"/>
<path d="M18.5172 28.5048C12.7914 28.5048 9.23422 26.9564 9.08585 26.8879C8.84236 26.7776 8.73203 26.4923 8.83856 26.2488C8.94889 26.0053 9.23422 25.8949 9.47771 26.0015C9.51195 26.0167 13.0083 27.5347 18.5134 27.5347C24.0185 27.5347 27.0355 26.0281 27.0621 26.0129C27.298 25.8911 27.5909 25.9863 27.7127 26.2259C27.8344 26.4656 27.7393 26.7548 27.5034 26.8765C27.3741 26.9412 24.2544 28.5048 18.5134 28.5048H18.5172Z" fill="black"/>
<path d="M11.9087 13.614C11.9087 13.614 11.4712 22.7866 18.2851 22.7866C25.099 22.7866 24.5511 13.7015 24.5511 13.7015L11.9087 13.614Z" fill="white"/>
<path d="M18.2851 23.2698C16.478 23.2698 14.9866 22.6648 13.8453 21.4702C11.2126 18.712 11.418 13.8004 11.4256 13.5911C11.437 13.3248 11.6691 13.1193 11.9316 13.1308C12.1979 13.1422 12.4034 13.3704 12.392 13.6368C12.392 13.6824 12.2017 18.3467 14.5453 20.8044C15.4964 21.7974 16.7519 22.3034 18.2813 22.3034C19.8107 22.3034 21.0776 21.7974 22.0135 20.8044C24.3077 18.3696 24.068 13.7775 24.0642 13.7319C24.049 13.4656 24.2506 13.2373 24.5207 13.2183C24.7832 13.1992 25.0153 13.4047 25.0343 13.671C25.0457 13.8764 25.3044 18.7234 22.725 21.4626C21.595 22.661 20.1037 23.2698 18.2851 23.2698Z" fill="black"/>
<path d="M15.4431 14.3672C15.4431 14.3672 14.9295 18.6777 18.2318 18.6777C21.5341 18.6777 21.1917 14.7096 21.1917 14.7096L15.4431 14.3672Z" fill="black"/>
<path d="M16.3562 7.76268C16.3562 6.68601 17.2312 5.81097 18.3079 5.81097C19.3846 5.81097 20.2558 6.68601 20.2558 7.76268C20.2558 8.83936 19.3846 9.71439 18.3079 9.71439C17.2312 9.71439 16.3562 8.83936 16.3562 7.76268Z" fill="#FFDE17"/>
<path d="M18.5172 15.3375C12.6887 15.3375 9.04402 13.7472 8.89184 13.6787C8.40486 13.4618 8.1842 12.8874 8.40106 12.4004C8.61791 11.9134 9.18859 11.6927 9.67938 11.9096C9.71362 11.9248 13.1339 13.401 18.521 13.401C23.9082 13.401 26.8225 11.9476 26.8529 11.9324C27.3285 11.6927 27.9106 11.883 28.1541 12.3585C28.3937 12.8341 28.2073 13.4162 27.7317 13.6597C27.5986 13.7282 24.3762 15.3413 18.521 15.3413L18.5172 15.3375Z" fill="black"/>
</svg>
