<svg width="37" height="41" viewBox="0 0 37 41" fill="none" xmlns="http://www.w3.org/2000/svg">
<path d="M35.4561 40.7211C33.0136 40.7211 33.1734 37.9172 31.0733 37.9172C28.9732 37.9172 29.8178 40.7211 27.3106 40.7211C24.8035 40.7211 24.891 37.9172 23.0648 37.9172C21.2386 37.9172 21.2463 40.7211 18.9179 40.7211C16.5895 40.7211 16.7455 37.571 14.9194 37.571C13.0932 37.571 12.4997 40.7211 10.5366 40.7211C8.57345 40.7211 7.84298 37.571 6.22607 37.571C4.60916 37.571 4.66623 40.7211 2.37972 40.7211C0.633456 40.7211 -1.12803 17.0343 7.52721 5.80718L6.65598 1.04774L11.4801 2.12442C13.5573 0.804256 16.0151 0.0395508 18.9141 0.0395508C21.6343 0.0395508 23.9703 0.712948 25.9676 1.88854L30.8564 0.827083L30.0955 5.52184C39.0437 16.6234 37.3317 40.7211 35.4523 40.7211H35.4561Z" fill="#27AAE1"/>
<path d="M18.952 28.5048C13.2263 28.5048 9.67284 26.9564 9.52066 26.8879C9.27717 26.7776 9.16685 26.4923 9.27337 26.2488C9.3837 26.0053 9.66904 25.8949 9.91253 26.0015C9.94677 26.0167 13.4431 27.5347 18.9482 27.5347C24.4533 27.5347 27.4703 26.0281 27.5007 26.0129C27.7404 25.8911 28.0296 25.9863 28.1513 26.2259C28.2731 26.4656 28.1779 26.7548 27.9421 26.8765C27.8127 26.9412 24.6892 28.5048 18.952 28.5048Z" fill="black"/>
<path d="M12.3475 13.614C12.3475 13.614 11.91 22.7866 18.72 22.7866C25.5301 22.7866 24.986 13.7015 24.986 13.7015L12.3437 13.614H12.3475Z" fill="white"/>
<path d="M18.72 23.2698C16.9128 23.2698 15.4215 22.6648 14.2801 21.4702C11.6512 18.712 11.8528 13.8004 11.8605 13.5911C11.8719 13.3248 12.1039 13.1193 12.3665 13.1308C12.6328 13.1422 12.8382 13.3704 12.8268 13.6368C12.8268 13.6824 12.6366 18.3467 14.9801 20.8044C15.9313 21.7974 17.1868 22.3034 18.7162 22.3034C20.2456 22.3034 21.5125 21.7974 22.4484 20.8044C24.7425 18.3696 24.5028 13.7775 24.499 13.7319C24.4838 13.4656 24.6854 13.2373 24.9556 13.2183C25.2219 13.1992 25.4501 13.4047 25.4692 13.671C25.4806 13.8764 25.7393 18.7234 23.1598 21.4626C22.0299 22.661 20.5385 23.2698 18.72 23.2698Z" fill="black"/>
<path d="M15.8818 14.3672C15.8818 14.3672 15.3682 18.6777 18.6705 18.6777C21.9728 18.6777 21.6304 14.7096 21.6304 14.7096L15.8818 14.3672Z" fill="black"/>
<path d="M16.7949 7.76268C16.7949 6.68601 17.67 5.81097 18.7466 5.81097C19.8233 5.81097 20.6945 6.68601 20.6945 7.76268C20.6945 8.83936 19.8233 9.71439 18.7466 9.71439C17.67 9.71439 16.7949 8.83936 16.7949 7.76268Z" fill="#FFDE17"/>
<path d="M18.952 15.3375C13.1235 15.3375 9.47883 13.7472 9.32665 13.6787C8.83967 13.4618 8.61902 12.8912 8.83587 12.4004C9.05273 11.9134 9.6234 11.6927 10.1142 11.9096C10.1636 11.9324 13.5801 13.401 18.9558 13.401C24.3316 13.401 27.2611 11.9476 27.2877 11.9324C27.7633 11.6927 28.3454 11.883 28.5888 12.3585C28.8285 12.8341 28.6421 13.4162 28.1665 13.6597C28.0334 13.7282 24.811 15.3413 18.9558 15.3413L18.952 15.3375Z" fill="black"/>
</svg>
