<svg width="37" height="41" viewBox="0 0 37 41" fill="none" xmlns="http://www.w3.org/2000/svg">
<path d="M34.5984 40.7211C32.1559 40.7211 32.3156 37.9134 30.2156 37.9134C28.1155 37.9134 28.9601 40.7211 26.4491 40.7211C23.9381 40.7211 24.0294 37.9134 22.2033 37.9134C20.3771 37.9134 20.3847 40.7211 18.0526 40.7211C15.7204 40.7211 15.8802 37.571 14.0578 37.571C12.2355 37.571 11.6382 40.7211 9.67886 40.7211C7.71955 40.7211 6.98527 37.571 5.36836 37.571C3.75144 37.571 3.80851 40.7211 1.5182 40.7211C-0.772108 40.7211 -3.08526 0.0395508 18.0564 0.0395508C39.198 0.0395508 37.037 40.7211 34.5984 40.7211Z" fill="#FFDE17"/>
<path d="M18.0906 28.5049C12.3648 28.5049 8.8076 26.9565 8.65922 26.888C8.41573 26.7777 8.30539 26.4923 8.41192 26.2489C8.52225 26.0054 8.80759 25.895 9.05107 26.0016C9.08531 26.0168 12.5817 27.5348 18.0868 27.5348C23.5919 27.5348 26.6051 26.0282 26.6355 26.013C26.8714 25.8912 27.1643 25.9864 27.2861 26.2222C27.4078 26.4619 27.3127 26.7511 27.0768 26.8728C26.9475 26.9375 23.8278 28.5011 18.0868 28.5011L18.0906 28.5049Z" fill="black"/>
<path d="M11.486 13.6179C11.486 13.6179 11.0485 22.7905 17.8623 22.7905C24.6762 22.7905 24.1284 13.7054 24.1284 13.7054L11.486 13.6179Z" fill="white"/>
<path d="M17.8585 23.2737C16.0514 23.2737 14.5562 22.6688 13.4187 21.4741C10.7898 18.7159 10.9914 13.8043 10.999 13.595C11.0104 13.3287 11.2425 13.1233 11.505 13.1347C11.7713 13.1461 11.9768 13.3744 11.9653 13.6407C11.9653 13.6863 11.7751 18.3506 14.1187 20.8084C15.0698 21.8013 16.3253 22.3073 17.8547 22.3073C19.3841 22.3073 20.651 21.8013 21.5869 20.8084C23.8811 18.3735 23.6414 13.7814 23.6376 13.7358C23.6224 13.4695 23.824 13.2412 24.0941 13.2222C24.3566 13.207 24.5887 13.4086 24.6077 13.6749C24.6191 13.8804 24.8778 18.7273 22.2984 21.4665C21.1684 22.665 19.6771 23.2737 17.8585 23.2737Z" fill="black"/>
<path d="M15.0204 14.3672C15.0204 14.3672 14.5068 18.6777 17.8091 18.6777C21.1114 18.6777 20.769 14.7096 20.769 14.7096L15.0204 14.3672Z" fill="black"/>
<path d="M15.9335 7.76268C15.9335 6.68601 16.8085 5.81097 17.8852 5.81097C18.9619 5.81097 19.8369 6.68601 19.8369 7.76268C19.8369 8.83936 18.9619 9.71439 17.8852 9.71439C16.8085 9.71439 15.9335 8.83936 15.9335 7.76268Z" fill="#27AAE1"/>
<path d="M18.0907 15.3375C12.2622 15.3375 8.61748 13.7472 8.4653 13.6787C7.97452 13.4618 7.75765 12.8912 7.97451 12.4004C8.19137 11.9134 8.76206 11.6927 9.25284 11.9096C9.32512 11.94 12.7378 13.401 18.0945 13.401C23.4512 13.401 26.3959 11.9476 26.4225 11.9324C26.8981 11.6889 27.484 11.8792 27.7237 12.3547C27.9672 12.8303 27.777 13.4124 27.3014 13.6559C27.1682 13.7243 23.9458 15.3375 18.0907 15.3375Z" fill="black"/>
</svg>
